<mxfile host="65bd71144e">
    <diagram id="-VVylhuuQzuaavlVenEL" name="Page-1">
        <mxGraphModel dx="1270" dy="1192" grid="1" gridSize="10" guides="1" tooltips="1" connect="1" arrows="1" fold="1" page="1" pageScale="1" pageWidth="850" pageHeight="1100" math="0" shadow="0">
            <root>
                <mxCell id="0"/>
                <mxCell id="1" parent="0"/>
                <mxCell id="2" value="Budget App V1.0:&lt;div&gt;Track Monthly Bills/budgets&lt;/div&gt;&lt;div&gt;Be capable of assigning payments/transactions in earlier/later months due to paycheck alignment&lt;/div&gt;" style="text;html=1;align=center;verticalAlign=middle;whiteSpace=wrap;rounded=0;fillColor=#66B2FF;" parent="1" vertex="1">
                    <mxGeometry x="40" y="40" width="450" height="180" as="geometry"/>
                </mxCell>
                <mxCell id="3" value="Components to track:&lt;div&gt;Transaction[in]&lt;/div&gt;&lt;div&gt;Transaction[out]&lt;/div&gt;&lt;div&gt;Budget Categories (car, insurance, etc)&lt;/div&gt;&lt;div&gt;Budget macro categories (bills, fun, monthly, etc)&lt;/div&gt;" style="text;html=1;align=center;verticalAlign=middle;whiteSpace=wrap;rounded=0;fillColor=#66B2FF;" parent="1" vertex="1">
                    <mxGeometry x="115" y="240" width="300" height="100" as="geometry"/>
                </mxCell>
                <mxCell id="4" value="Views:&lt;div&gt;Dashboard -&amp;gt; should show budgets at a glance and notifications for un-reviewed transactions&lt;/div&gt;&lt;div&gt;Savings/Inflow/Outflow graphs -&amp;gt; charts to show how spending is occuring; selectable categories&lt;/div&gt;" style="text;html=1;align=center;verticalAlign=middle;whiteSpace=wrap;rounded=0;fillColor=#66B2FF;" parent="1" vertex="1">
                    <mxGeometry x="115" y="360" width="300" height="100" as="geometry"/>
                </mxCell>
                <mxCell id="8" style="edgeStyle=isometricEdgeStyle;html=1;exitX=0.5;exitY=0;exitDx=0;exitDy=0;entryX=0;entryY=0.5;entryDx=0;entryDy=0;rounded=1;startArrow=classic;startFill=1;curved=0;" parent="1" source="5" target="6" edge="1">
                    <mxGeometry relative="1" as="geometry"/>
                </mxCell>
                <mxCell id="5" value="GUI/Dashboard" style="shape=parallelogram;perimeter=parallelogramPerimeter;whiteSpace=wrap;html=1;fixedSize=1;fillColor=#fa6800;fontColor=#000000;strokeColor=#C73500;" parent="1" vertex="1">
                    <mxGeometry x="70" y="680" width="120" height="60" as="geometry"/>
                </mxCell>
                <mxCell id="9" style="edgeStyle=isometricEdgeStyle;html=1;exitX=1;exitY=0.5;exitDx=0;exitDy=0;entryX=0.5;entryY=0;entryDx=0;entryDy=0;elbow=vertical;startArrow=classic;startFill=1;" parent="1" source="6" target="10" edge="1">
                    <mxGeometry relative="1" as="geometry">
                        <mxPoint x="430" y="680" as="targetPoint"/>
                    </mxGeometry>
                </mxCell>
                <mxCell id="6" value="Controller/logic" style="shape=parallelogram;perimeter=parallelogramPerimeter;whiteSpace=wrap;html=1;fixedSize=1;fillColor=#fa6800;fontColor=#000000;strokeColor=#C73500;" parent="1" vertex="1">
                    <mxGeometry x="240" y="540" width="120" height="60" as="geometry"/>
                </mxCell>
                <mxCell id="10" value="Data Container -&amp;gt; replace by SQL in V2" style="shape=datastore;whiteSpace=wrap;html=1;fillColor=#b1ddf0;strokeColor=#10739e;" parent="1" vertex="1">
                    <mxGeometry x="415" y="680" width="110" height="70" as="geometry"/>
                </mxCell>
                <mxCell id="28" style="edgeStyle=none;html=1;exitX=0.5;exitY=0;exitDx=0;exitDy=0;entryX=0.5;entryY=1;entryDx=0;entryDy=0;" parent="1" source="24" target="5" edge="1">
                    <mxGeometry relative="1" as="geometry"/>
                </mxCell>
                <mxCell id="24" value="Possible Views" style="swimlane;childLayout=stackLayout;resizeParent=1;resizeParentMax=0;startSize=20;html=1;" parent="1" vertex="1" collapsed="1">
                    <mxGeometry x="20" y="810" width="120" height="30" as="geometry">
                        <mxRectangle x="20" y="810" width="120" height="170" as="alternateBounds"/>
                    </mxGeometry>
                </mxCell>
                <mxCell id="25" value="Mobile/Small" style="swimlane;startSize=20;html=1;" parent="24" vertex="1" collapsed="1">
                    <mxGeometry y="20" width="60" height="150" as="geometry">
                        <mxRectangle y="20" width="200" height="150" as="alternateBounds"/>
                    </mxGeometry>
                </mxCell>
                <mxCell id="15" value="Single View capable" style="text;strokeColor=none;fillColor=none;align=left;verticalAlign=top;spacingLeft=4;spacingRight=4;overflow=hidden;rotatable=0;points=[[0,0.5],[1,0.5]];portConstraint=eastwest;whiteSpace=wrap;html=1;" parent="25" vertex="1">
                    <mxGeometry x="10" y="30" width="130" height="26" as="geometry"/>
                </mxCell>
                <mxCell id="16" value="View switcher at bottom (icons)" style="text;strokeColor=none;fillColor=none;align=left;verticalAlign=top;spacingLeft=4;spacingRight=4;overflow=hidden;rotatable=0;points=[[0,0.5],[1,0.5]];portConstraint=eastwest;whiteSpace=wrap;html=1;" parent="25" vertex="1">
                    <mxGeometry x="10" y="60" width="180" height="26" as="geometry"/>
                </mxCell>
                <mxCell id="17" value="Maybe sidebar that auto-hides?" style="text;strokeColor=none;fillColor=none;align=left;verticalAlign=top;spacingLeft=4;spacingRight=4;overflow=hidden;rotatable=0;points=[[0,0.5],[1,0.5]];portConstraint=eastwest;whiteSpace=wrap;html=1;" parent="25" vertex="1">
                    <mxGeometry x="5" y="100" width="185" height="26" as="geometry"/>
                </mxCell>
                <mxCell id="26" value="Desktop/Large" style="swimlane;startSize=20;html=1;" parent="24" vertex="1" collapsed="1">
                    <mxGeometry x="60" y="20" width="60" height="150" as="geometry">
                        <mxRectangle x="200" y="20" width="190" height="150" as="alternateBounds"/>
                    </mxGeometry>
                </mxCell>
                <mxCell id="20" value="Multi-View capable" style="text;strokeColor=none;fillColor=none;align=left;verticalAlign=top;spacingLeft=4;spacingRight=4;overflow=hidden;rotatable=0;points=[[0,0.5],[1,0.5]];portConstraint=eastwest;whiteSpace=wrap;html=1;" parent="26" vertex="1">
                    <mxGeometry x="10" y="30" width="120" height="26" as="geometry"/>
                </mxCell>
                <mxCell id="21" value="Sidebar with icons and descrip" style="text;strokeColor=none;fillColor=none;align=left;verticalAlign=top;spacingLeft=4;spacingRight=4;overflow=hidden;rotatable=0;points=[[0,0.5],[1,0.5]];portConstraint=eastwest;whiteSpace=wrap;html=1;" parent="26" vertex="1">
                    <mxGeometry x="10" y="62" width="180" height="26" as="geometry"/>
                </mxCell>
            </root>
        </mxGraphModel>
    </diagram>
</mxfile>